<?xml version="1.0" encoding="utf-8"?> <svg version="1.1" id="Layer_1" xmlns="http://www.w3.org/2000/svg" xmlns:xlink="http://www.w3.org/1999/xlink" x="0px" y="0px" viewBox="0 0 1801.7 1388.5" style="enable-background:new 0 0 1801.7 1388.5;" xml:space="preserve"> <style type="text/css"> .st0{fill:url(#XMLID_00000018926131167388471200000013897084551927168152_);}.st1{fill:url(#XMLID_00000171688910611576842100000005330121074626096286_);}.st2{fill:url(#SVGID_1_);}.st3{fill:url(#SVGID_00000137124948057523642830000002724832349024265346_);}.st4{fill:#E43D95;}</style> <g> <linearGradient id="XMLID_00000114072121556896212230000010049277640784972683_" gradientUnits="userSpaceOnUse" x1="262.1799" y1="845.5609" x2="419.0229" y2="469.5195"> <stop offset="2.067916e-06" style="stop-color:#E63A95"/> <stop offset="0.204" style="stop-color:#CE74AF"/> <stop offset="0.4079" style="stop-color:#B695C6"/> <stop offset="0.5961" style="stop-color:#9DADD9"/> <stop offset="0.7635" style="stop-color:#88BCE6"/> <stop offset="0.9038" style="stop-color:#78C5EE"/> <stop offset="1" style="stop-color:#71C8F1"/> </linearGradient> <path id="XMLID_00000135680880083055928830000005048586222544083391_" style="fill:url(#XMLID_00000114072121556896212230000010049277640784972683_);" d=" M724.8,365.3c-42,17.2-78.5,41.2-108.9,71.1c-28.5,28.1-51.2,61.2-67.6,98.3c-1.7,3.6-3.2,7.3-4.7,11c-0.4,0.8-0.6,1.7-0.9,2.4 H301.8v256.3c0,17.3,2.7,33.9,8.1,49.8c5.5,15.8,13.9,30.3,25.3,43.1c11.3,13,25.8,23.4,43.6,31.1C396.7,936,417.3,940,441,940 c5.6,0,11-0.3,16.3-0.6c17.8-1.4,33.6-5,47.4-10.9c4.6-2.1,9.1-4.2,13.3-6.7v197.5c-20.7,2.6-42.5,4-60.7,4.6 c-5.4,0.3-10.8,0.4-16.3,0.4c-51.3,0-97.5-8.2-138.5-24.5s-76.1-39.1-105.2-68.4c-29.1-29.3-51.6-63.8-67.4-103.7 c-15.8-39.8-23.6-82.8-23.6-128.8V370.7c0-106.4,86.1-192.6,192.5-192.6h3v187.2H724.8z"/> <g id="XMLID_00000003083611585306136960000018351286337775068587_"> <linearGradient id="XMLID_00000019648998611181329910000001235073114791924400_" gradientUnits="userSpaceOnUse" x1="639.3765" y1="756.0387" x2="871.4265" y2="419.192"> <stop offset="1.240750e-06" style="stop-color:#E63A95"/> <stop offset="0.1865" style="stop-color:#CD6FAB"/> <stop offset="0.3941" style="stop-color:#B08FBF"/> <stop offset="0.5867" style="stop-color:#94A5D0"/> <stop offset="0.758" style="stop-color:#7AB4DD"/> <stop offset="0.9015" style="stop-color:#66BCE4"/> <stop offset="1" style="stop-color:#5EBEE6"/> </linearGradient> <path id="XMLID_00000037687899860941163750000009235070600083616687_" style="fill:url(#XMLID_00000019648998611181329910000001235073114791924400_);" d=" M1083.7,406.1c-25.7,16.2-49.1,34.9-69.8,55.9c-25.5,25.8-47.4,55.3-64.5,87.3c-18.6-9.6-43.6-14.5-74.9-14.5 c-12.6,0-24.5,1-35.8,3.3c-0.8,0-1.7,0.3-2.3,0.4c-27.1,5.5-50.2,17.5-69.6,35.5c-27.8,26.2-41.8,60.6-41.8,103v240.2 c0,96.9-70.1,177.6-162.3,194.2c-0.3,0-0.5,0.1-0.8,0.1c-11,1.9-22.5,3-34.1,3v-433c0-47.5,8.2-91.6,24.6-132.3 c0.1-0.4,0.4-0.8,0.5-1.2c1.4-3.2,2.7-6.4,4.1-9.6c16-36.2,38-67.9,65.6-95.2c30.4-30,66.7-53.5,109.1-70.4 c6.9-2.8,14-5.4,21.3-7.6c11.7-3.8,23.7-7.1,36.2-9.6c26.7-5.5,55.2-8.2,85.3-8.2c53.8,0,101.8,8.2,144.2,24.6 C1042.4,381.2,1064.1,392.7,1083.7,406.1z"/> </g> <linearGradient id="SVGID_1_" gradientUnits="userSpaceOnUse" x1="1418.9801" y1="1147.9402" x2="1228.7562" y2="482.4558"> <stop offset="0.452" style="stop-color:#E63A95"/> <stop offset="0.5567" style="stop-color:#D65FA3"/> <stop offset="0.7876" style="stop-color:#A896C5"/> <stop offset="1" style="stop-color:#5EBEE6"/> </linearGradient> <path class="st2" d="M1499.1,736.9c0-28.7-5.1-46.7-15.5-71.6c-10.5-25-24.6-46.8-42.4-65.6c-17.9-18.7-38.7-33.5-62.5-44.7 c-23.9-11-49-16.5-75.8-16.5c-26.8,0-52,5.3-75.8,15.9c-6.2,2.7-12.1,5.6-17.7,8.9c-1.4,0.9-2.8,1.7-4.2,2.6 c-1.4,0.8-2.8,1.7-4.2,2.6c-13.2,8.2-25.3,18-36.2,29.1c-17.9,18.2-32,39.6-42.3,64.2c-7.2,16.9-11.9,34.6-14.3,53.2 c-0.3,1.5-0.4,3.1-0.4,4.7c-0.2,1.6-0.4,3.2-0.5,4.9c-0.4,5.1-0.5,10.4-0.5,15.5c0,27.8,5.1,53.3,15.5,76.3 c10.4,23,24.5,43,42.2,59.8c17.7,16.8,38.7,29.9,62.9,39.5c24.3,9.6,50.7,14.5,79.3,14.5h183.4v184.3h-207.1 c-53.3,0-102.7-9.9-148-29.6c-45.3-19.6-84.6-46.2-117.9-79.8c-33.4-33.6-59.3-73.1-77.9-118.8c-18.6-45.6-27.8-94.3-27.8-146.2 c0-52.7,9.5-102.4,28.9-149c4-9.8,8.3-19.3,13.1-28.5c0.6-1.4,1.4-2.8,2.2-4.3c0.8-1.4,1.5-2.9,2.3-4.4c16.9-31.4,38-59.9,63-85.3 c21.4-21.7,45.2-40.4,71.6-56.6c1.5-0.9,2.9-1.8,4.5-2.7c1.4-0.9,2.9-1.8,4.5-2.6c13.7-8,28.1-15.1,43.1-21.7 c47.9-20.7,101-30.9,159.3-30.9c57.2,0,109.8,10.3,157.7,30.9c47.9,20.6,89,48.8,123.7,84.3c34.5,35.4,61.5,77,80.7,124.5 c18.2,44.9,27.8,92.5,28.8,142.9h-195.4"/> <linearGradient id="SVGID_00000108999380146258280300000004614110813687488385_" gradientUnits="userSpaceOnUse" x1="1499.1302" y1="1178.7776" x2="1499.1302" y2="1178.7776"> <stop offset="0.4152" style="stop-color:#E63A95"/> <stop offset="0.439" style="stop-color:#E04A9A"/> <stop offset="0.5531" style="stop-color:#C47AB1"/> <stop offset="0.6627" style="stop-color:#A995C4"/> <stop offset="0.765" style="stop-color:#8FA8D3"/> <stop offset="0.8583" style="stop-color:#77B5DE"/> <stop offset="0.9397" style="stop-color:#65BCE4"/> <stop offset="1" style="stop-color:#5EBEE6"/> </linearGradient> <line style="fill:url(#SVGID_00000108999380146258280300000004614110813687488385_);" x1="1499.2" y1="1178.8" x2="1499.1" y2="1178.8"/> <g> <g> <polygon class="st4" points="1694.9,1178.5 1694.9,1132.9 1528.9,1132.9 1528.9,1101 1499.2,1101 1499.2,1210.4 1528.9,1210.4 1528.9,1178.5 "/> </g> <g> <polygon class="st4" points="1657.6,997.1 1657.6,1053.7 1615.7,1053.7 1615.7,998.8 1578.5,998.8 1578.5,1053.7 1536.3,1053.7 1536.3,997.1 1499.2,997.1 1499.2,1091.7 1694.9,1091.7 1694.9,997.1 "/> </g> <g> <path class="st4" d="M1650.2,920.1c9.9,0,14.8,4,14.8,11.9c0,7.6-4.9,11.4-14.8,11.4h-106c-9.9,0-14.8-3.8-14.8-11.4 c0-8,4.9-11.9,14.8-11.9h26v-44h-20.7c-18.4,0-31.5,4.9-39.5,14.6c-7.2,8.8-10.9,22.6-10.9,41.3c0,36.9,18.4,55.4,55.1,55.4h85.9 c36.7,0,55.1-18.5,55.1-55.4c0-37.3-17.4-55.9-52.2-55.9h-24.9v44H1650.2z"/> </g> <g> <polygon class="st4" points="1615.6,816.2 1615.6,792 1694.9,792 1694.9,746.4 1499.2,746.4 1499.2,792 1578.7,792 1578.7,816.2 1499.2,816.2 1499.2,861.9 1694.9,861.9 1694.9,816.2 "/> </g> </g> </g> </svg>